<?xml version="1.0" encoding="utf-8"?>
<!-- Generator: Adobe Illustrator 16.0.0, SVG Export Plug-In . SVG Version: 6.00 Build 0)  -->
<svg version="1.2" baseProfile="tiny" id="Calque_1"
	 xmlns="http://www.w3.org/2000/svg" xmlns:xlink="http://www.w3.org/1999/xlink" x="0px" y="0px" width="208px" height="62px"
	 viewBox="0 0 208 62" xml:space="preserve">
<g>
	<g>
		<path fill="#F9F8F8" d="M23.998,27.818V11.35c0-4.621,2.89-6.931,8.668-6.931H55.2v5.2H32.666c-1.157,0-1.734,0.578-1.734,1.73
			v5.655h18.199v5.197H30.932v5.616c0,1.157,0.577,1.734,1.734,1.734H55.2v5.202H32.666C26.888,34.754,23.998,32.444,23.998,27.818"
			/>
	</g>
	<rect x="58.666" y="29.552" fill="#F9F8F8" width="5.197" height="5.202"/>
	<rect x="105.468" y="29.552" fill="#F9F8F8" width="5.201" height="5.202"/>
	<polygon fill="#F9F8F8" points="114.134,9.618 114.134,4.418 141.87,4.418 141.87,9.618 131.468,9.618 131.468,34.751 
		124.537,34.751 124.537,9.618 	"/>
	<rect x="145.338" y="29.552" fill="#F9F8F8" width="5.197" height="5.202"/>
	<rect x="154.005" y="4.419" fill="#F9F8F8" width="6.936" height="30.334"/>
	<rect x="164.437" y="29.552" fill="#F9F8F8" width="5.203" height="5.202"/>
	<g>
		<path fill="#F9F8F8" d="M173.104,34.754v-5.202h23.402c2.306,0,3.465-1.156,3.465-3.468c0-2.588-1.159-3.882-3.465-3.882h-14.734
			c-5.203,0-8.092-3.039-8.668-9.118c0.576-5.778,3.465-8.665,8.668-8.665h25.134v5.2h-23.401c-2.312,0-3.465,1.154-3.465,3.465
			c0,2.613,1.152,3.92,3.465,3.92h13.002c6.355,0,9.82,3.025,10.399,9.08c-0.579,5.778-4.044,8.669-10.399,8.669H173.104z"/>
	</g>
	<polygon fill="#F9F8F8" points="23.998,51.027 28.766,51.027 28.766,51.986 25.141,51.986 25.141,54.93 28.493,54.93 
		28.493,55.874 25.141,55.874 25.141,59.885 23.998,59.885 	"/>
	<polygon fill="#F9F8F8" points="36.964,51.027 38.108,51.027 38.108,58.927 41.89,58.927 41.89,59.885 36.964,59.885 	"/>
	<rect x="49.73" y="51.027" fill="#F9F8F8" width="1.143" height="8.857"/>
	<g>
		<path fill="#F9F8F8" d="M66.179,59.49c-0.512,0.184-1.526,0.484-2.721,0.484c-1.337,0-2.442-0.343-3.308-1.169
			c-0.762-0.734-1.237-1.92-1.237-3.297c0.017-2.644,1.829-4.573,4.797-4.573c1.024,0,1.824,0.224,2.207,0.408l-0.277,0.933
			c-0.471-0.211-1.065-0.38-1.958-0.38c-2.154,0-3.561,1.337-3.561,3.56c0,2.243,1.354,3.575,3.416,3.575
			c0.749,0,1.261-0.104,1.526-0.239v-2.641h-1.801v-0.922h2.917V59.49z"/>
	</g>
	<polygon fill="#F9F8F8" points="75.635,51.027 75.635,54.732 79.916,54.732 79.916,51.027 81.076,51.027 81.076,59.885 
		79.916,59.885 79.916,55.732 75.635,55.732 75.635,59.885 74.492,59.885 74.492,51.027 	"/>
	<polygon fill="#F9F8F8" points="91.308,52 88.614,52 88.614,51.027 95.169,51.027 95.169,52 92.462,52 92.462,59.885 
		91.308,59.885 	"/>
	<g>
		<path fill="#F9F8F8" d="M116.412,56.204l-0.869-2.549c-0.197-0.579-0.326-1.104-0.458-1.616h-0.026
			c-0.132,0.526-0.276,1.066-0.447,1.606l-0.866,2.559H116.412z M113.508,57.1l-0.919,2.782h-1.183l3.007-8.854h1.38l3.023,8.854
			h-1.222l-0.946-2.782H113.508z"/>
		<path fill="#F9F8F8" d="M132.673,59.596c-0.419,0.21-1.264,0.421-2.338,0.421c-2.496,0-4.376-1.579-4.376-4.481
			c0-2.775,1.88-4.652,4.623-4.652c1.106,0,1.802,0.237,2.104,0.393l-0.276,0.935c-0.433-0.21-1.049-0.366-1.785-0.366
			c-2.078,0-3.455,1.327-3.455,3.652c0,2.166,1.245,3.557,3.402,3.557c0.695,0,1.405-0.142,1.864-0.363L132.673,59.596z"/>
		<path fill="#F9F8F8" d="M145.059,56.204l-0.863-2.549c-0.201-0.579-0.332-1.104-0.464-1.616h-0.023
			c-0.132,0.526-0.276,1.066-0.448,1.606l-0.866,2.559H145.059z M142.157,57.1l-0.919,2.782h-1.182l3.006-8.854h1.379l3.023,8.854
			h-1.222l-0.945-2.782H142.157z"/>
		<path fill="#F9F8F8" d="M156.475,58.977c0.29,0.055,0.709,0.065,1.156,0.065c2.446,0,3.772-1.364,3.772-3.757
			c0.011-2.088-1.171-3.415-3.585-3.415c-0.596,0-1.038,0.05-1.344,0.116V58.977z M155.332,51.146
			c0.695-0.106,1.525-0.182,2.433-0.182c1.639,0,2.81,0.379,3.586,1.101c0.787,0.724,1.246,1.748,1.246,3.18
			c0,1.443-0.445,2.628-1.271,3.444c-0.827,0.826-2.196,1.274-3.918,1.274c-0.812,0-1.495-0.042-2.075-0.105V51.146z"/>
	</g>
	<polygon fill="#F9F8F8" points="175.235,55.729 171.793,55.729 171.793,58.924 175.627,58.924 175.627,59.885 170.647,59.885 
		170.647,51.027 175.433,51.027 175.433,51.986 171.793,51.986 171.793,54.785 175.235,54.785 	"/>
	<path fill="#F9F8F8" d="M191.143,55.994c-0.068-1.236-0.145-2.719-0.134-3.824h-0.037c-0.3,1.037-0.669,2.144-1.116,3.365
		l-1.564,4.295h-0.868l-1.43-4.216c-0.419-1.248-0.774-2.391-1.024-3.444h-0.031c-0.021,1.105-0.087,2.588-0.166,3.916l-0.237,3.799
		h-1.093l0.618-8.857h1.459l1.509,4.284c0.369,1.088,0.672,2.062,0.896,2.983h0.042c0.222-0.896,0.537-1.867,0.93-2.983l1.58-4.284
		h1.459l0.545,8.857h-1.114L191.143,55.994z"/>
	<path fill="#F9F8F8" d="M202.78,59.885v-3.76l-2.798-5.098h1.3l1.248,2.443c0.343,0.669,0.605,1.209,0.88,1.827h0.028
		c0.251-0.578,0.551-1.158,0.891-1.827l1.277-2.443h1.3l-2.97,5.087v3.771H202.78z"/>
	<path fill="#F9F8F8" d="M79.193,11.689c1.75,2.518,3.347,5.231,4.867,7.978c1.125,2.02,2.2,4.072,3.245,6.14h-9.473l-0.119-2.505
		c-0.079-1.604-0.187-3.19-0.278-4.786l-0.146-2.39l-0.17-2.406l-0.385-5.183C77.589,9.491,78.412,10.57,79.193,11.689
		 M23.796,42.603L23.796,42.603C23.799,42.607,23.801,42.607,23.796,42.603 M11.8,43.05l-0.029,0.006
		c0.011-0.006,0.021-0.006,0.032-0.011C11.924,43.045,11.814,43.05,11.8,43.05 M0.113,44.496L0.113,44.496
		C0.072,44.508,0.105,44.496,0.113,44.496 M202.265,44.928c-1.577-0.282-3.165-0.498-4.759-0.69
		c-3.175-0.382-6.365-0.663-9.562-0.885c-6.387-0.439-12.779-0.739-19.175-0.939c-6.398-0.195-12.797-0.324-19.194-0.408
		c-3.199-0.045-6.4-0.065-9.598-0.065h-4.805l-4.818,0.044c-3.21,0.071-6.366-0.04-9.539-0.04l-4.761-0.137
		c-1.579-0.058-3.159-0.16-4.739-0.236c-1.574-0.124-3.154-0.217-4.708-0.39c-0.783-0.071-1.545-0.172-2.306-0.269l-0.265-0.039
		l-0.25-0.046c-0.043-0.005-0.116-0.016-0.135-0.025l-0.062-0.017l-0.162-0.047c-0.25-0.079-0.512-0.19-0.775-0.324
		c-1.07-0.545-2.15-1.498-3.125-2.567c-0.98-1.074-1.89-2.279-2.737-3.543c-0.846-1.265-1.636-2.585-2.367-3.933
		c-0.355-0.667-0.736-1.384-1.009-2.001l-1.019-2.205c-1.381-2.925-2.817-5.817-4.36-8.673c-1.555-2.85-3.188-5.667-5.071-8.415
		c-0.952-1.369-1.952-2.724-3.167-4.036c-0.623-0.656-1.281-1.302-2.155-1.914c-0.436-0.301-0.93-0.602-1.575-0.839
		c-0.628-0.231-1.469-0.409-2.416-0.231l-2.002,0.38l0.134,2.059l0.636,9.555l0.305,4.759c0.105,1.59,0.224,3.192,0.307,4.772
		l0.257,4.746l0.193,4.749l0.059,2.37c0.02,0.79,0.044,1.579,0.041,2.364c0.003,0.779,0.021,1.574,0.003,2.343
		c0,0.101-0.003,0.205-0.003,0.306c-1.353,0.098-2.703,0.197-4.054,0.313c-2.027,0.161-4.063,0.242-6.094,0.371
		c-2.032,0.137-4.073,0.174-6.111,0.264c-2.036,0.089-4.08,0.131-6.123,0.184l-12.281,0.304l-6.158,0.166
		c-2.054,0.062-4.109,0.115-6.166,0.236l-2.947,0.152c-0.043-0.053-0.088-0.105-0.134-0.163c-0.244-0.321-0.499-0.724-0.739-1.132
		c-0.969-1.68-1.842-3.544-2.737-5.382c-0.911-1.854-1.755-3.702-2.92-5.59c-0.154-0.238-0.316-0.478-0.507-0.728
		c-0.2-0.251-0.394-0.507-0.79-0.815c-0.21-0.14-0.494-0.378-1.124-0.412c0.1-0.013-0.267,0.013-0.229,0.013l-0.025,0.002
		l-0.048,0.005c0.02-0.002-0.129,0.025-0.199,0.046c-0.086,0.023-0.172,0.057-0.256,0.092c-0.25,0.122-0.402,0.245-0.531,0.371
		c-0.246,0.249-0.375,0.473-0.47,0.658c-0.096,0.194-0.158,0.364-0.217,0.526c-0.21,0.645-0.292,1.19-0.375,1.739
		c-0.075,0.545-0.126,1.074-0.169,1.606c-0.167,2.096-0.21,4.149-0.334,6.166c-0.062,1.001-0.132,2.01-0.288,2.918
		c-0.041,0.221-0.087,0.437-0.139,0.621c-0.011,0.032-0.018,0.063-0.032,0.095l-0.634,0.055C8.7,43.335,6.652,43.479,4.607,43.7
		l-3.071,0.311l-0.768,0.087l-0.38,0.039l-0.191,0.019l-0.084,0.006c-0.003,0-0.008,0-0.014,0l-0.01,0.005
		c-0.005,0.048-0.005,0.021-0.003-0.005c-0.022,0-0.014-0.008-0.086,0.011c-0.003,0.657,0.064,0.197,0.057,0.342l0.03,0.005
		l0.102,0.017l0.197,0.021l0.383,0.042l0.771,0.085c1.027,0.097,2.051,0.174,3.078,0.256c2.055,0.176,4.106,0.271,6.158,0.407
		l0.77,0.045l0.191,0.014l0.097,0.005c0.051,0,0.005,0.01,0.191-0.005c0.267-0.019,0.54-0.13,0.712-0.248
		c0.1-0.062,0.181-0.129,0.24-0.189c0.067-0.061,0.133-0.127,0.175-0.182c0.362-0.472,0.435-0.782,0.548-1.098
		c0.095-0.311,0.16-0.596,0.216-0.875c0.208-1.11,0.296-2.147,0.383-3.19c0.162-2.07,0.245-4.121,0.439-6.104
		c0.047-0.497,0.106-0.984,0.181-1.453c0.013-0.076,0.026-0.155,0.039-0.23c0.913,1.567,1.721,3.374,2.543,5.135
		c0.865,1.862,1.696,3.737,2.738,5.633c0.267,0.474,0.548,0.95,0.915,1.453c0.196,0.253,0.385,0.511,0.744,0.821
		c0.09,0.074,0.191,0.155,0.326,0.24c0.057,0.036,0.15,0.087,0.235,0.126l0.131,0.061c0.082,0.026,0.167,0.056,0.254,0.076
		c0.086,0.024,0.173,0.035,0.258,0.046l0.049,0.004l0.025,0.006c0.083,0-0.151-0.006,0.191,0.005h0.049h0.191l3.063,0.006
		c2.038,0,4.082-0.006,6.128,0.021l6.139,0.068l6.153,0.079l3.077,0.042l3.084-0.005c2.056-0.006,4.111,0,6.17-0.039
		c2.063-0.042,4.121-0.035,6.184-0.124c2.061-0.079,4.124-0.121,6.19-0.235c2.062-0.113,4.127-0.266,6.188-0.396l1.952-0.127
		l0.131-1.953c0.065-0.948,0.081-1.717,0.095-2.552c0.024-0.824,0.011-1.624,0.013-2.44c0.008-0.814-0.01-1.619-0.025-2.426
		l-0.044-2.414l-0.125-3.59h11.098l0.399,0.833c0.396,0.838,0.782,1.523,1.194,2.259c0.823,1.445,1.7,2.856,2.66,4.23
		c0.962,1.372,2.002,2.71,3.203,3.971c1.208,1.251,2.548,2.47,4.351,3.357c0.45,0.221,0.934,0.408,1.453,0.55
		c0.129,0.034,0.254,0.068,0.418,0.1l0.23,0.048l0.161,0.026l0.341,0.043l0.331,0.038c0.83,0.077,1.654,0.151,2.465,0.198
		c1.631,0.124,3.242,0.155,4.861,0.227c1.614,0.018,3.23,0.062,4.842,0.062l4.832-0.038c3.22-0.099,6.453-0.201,9.634-0.414
		l4.763-0.279l4.789-0.124l9.576-0.205c6.388-0.124,12.775-0.205,19.16-0.214c6.393-0.004,12.78,0.009,19.16,0.211
		c3.194,0.104,6.385,0.227,9.565,0.456c1.59,0.118,3.181,0.255,4.766,0.46c1.576,0.219,3.167,0.443,4.676,0.982
		C205.424,45.52,203.834,45.22,202.265,44.928"/>
</g>
</svg>
