<?xml version="1.0" encoding="utf-8"?>
<!-- Generator: Adobe Illustrator 25.0.1, SVG Export Plug-In . SVG Version: 6.00 Build 0)  -->
<svg version="1.1" id="Calque_1" xmlns="http://www.w3.org/2000/svg" xmlns:xlink="http://www.w3.org/1999/xlink" x="0px" y="0px"
	 viewBox="0 0 208 62" style="enable-background:new 0 0 208 62;" xml:space="preserve">
<style type="text/css">
	.st0{fill:#2A2A2A;}
	.st1{fill:#1F285C;}
</style>
<g>
	<g>
		<path class="st0" d="M24,27.8V11.4c0-4.6,2.9-6.9,8.7-6.9h22.5v5.2H32.7c-1.2,0-1.7,0.6-1.7,1.7V17h18.2v5.2H30.9v5.6
			c0,1.2,0.6,1.7,1.7,1.7h22.5v5.2H32.7C26.9,34.8,24,32.4,24,27.8"/>
	</g>
	<rect x="58.7" y="29.6" class="st1" width="5.2" height="5.2"/>
	<rect x="105.5" y="29.6" class="st1" width="5.2" height="5.2"/>
	<polygon class="st0" points="114.1,9.6 114.1,4.4 141.9,4.4 141.9,9.6 131.5,9.6 131.5,34.8 124.5,34.8 124.5,9.6 	"/>
	<rect x="145.3" y="29.6" class="st1" width="5.2" height="5.2"/>
	<rect x="154" y="4.4" class="st0" width="6.9" height="30.3"/>
	<rect x="164.4" y="29.6" class="st1" width="5.2" height="5.2"/>
	<g>
		<path class="st0" d="M173.1,34.8v-5.2h23.4c2.3,0,3.5-1.2,3.5-3.5c0-2.6-1.2-3.9-3.5-3.9h-14.7c-5.2,0-8.1-3-8.7-9.1
			c0.6-5.8,3.5-8.7,8.7-8.7h25.1v5.2h-23.4c-2.3,0-3.5,1.2-3.5,3.5c0,2.6,1.2,3.9,3.5,3.9h13c6.4,0,9.8,3,10.4,9.1
			c-0.6,5.8-4,8.7-10.4,8.7L173.1,34.8L173.1,34.8z"/>
	</g>
	<polygon class="st0" points="24,51 28.8,51 28.8,52 25.1,52 25.1,54.9 28.5,54.9 28.5,55.9 25.1,55.9 25.1,59.9 24,59.9 	"/>
	<polygon class="st0" points="37,51 38.1,51 38.1,58.9 41.9,58.9 41.9,59.9 37,59.9 	"/>
	<rect x="49.7" y="51" class="st0" width="1.1" height="8.9"/>
	<g>
		<path class="st0" d="M66.2,59.5c-0.5,0.2-1.5,0.5-2.7,0.5c-1.3,0-2.4-0.3-3.3-1.2c-0.8-0.7-1.2-1.9-1.2-3.3c0-2.6,1.8-4.6,4.8-4.6
			c1,0,1.8,0.2,2.2,0.4l-0.3,0.9c-0.5-0.2-1.1-0.4-2-0.4c-2.2,0-3.6,1.3-3.6,3.6c0,2.2,1.4,3.6,3.4,3.6c0.7,0,1.3-0.1,1.5-0.2v-2.6
			h-1.8v-0.9h2.9V59.5z"/>
	</g>
	<polygon class="st0" points="75.6,51 75.6,54.7 79.9,54.7 79.9,51 81.1,51 81.1,59.9 79.9,59.9 79.9,55.7 75.6,55.7 75.6,59.9 
		74.5,59.9 74.5,51 	"/>
	<polygon class="st0" points="91.3,52 88.6,52 88.6,51 95.2,51 95.2,52 92.5,52 92.5,59.9 91.3,59.9 	"/>
	<g>
		<path class="st0" d="M116.4,56.2l-0.9-2.5c-0.2-0.6-0.3-1.1-0.5-1.6h0c-0.1,0.5-0.3,1.1-0.4,1.6l-0.9,2.6
			C113.7,56.2,116.4,56.2,116.4,56.2z M113.5,57.1l-0.9,2.8h-1.2l3-8.9h1.4l3,8.9h-1.2l-0.9-2.8H113.5z"/>
		<path class="st0" d="M132.7,59.6c-0.4,0.2-1.3,0.4-2.3,0.4c-2.5,0-4.4-1.6-4.4-4.5c0-2.8,1.9-4.7,4.6-4.7c1.1,0,1.8,0.2,2.1,0.4
			l-0.3,0.9c-0.4-0.2-1-0.4-1.8-0.4c-2.1,0-3.5,1.3-3.5,3.7c0,2.2,1.2,3.6,3.4,3.6c0.7,0,1.4-0.1,1.9-0.4L132.7,59.6z"/>
		<path class="st0" d="M145.1,56.2l-0.9-2.5c-0.2-0.6-0.3-1.1-0.5-1.6h0c-0.1,0.5-0.3,1.1-0.4,1.6l-0.9,2.6
			C142.4,56.2,145.1,56.2,145.1,56.2z M142.2,57.1l-0.9,2.8h-1.2l3-8.9h1.4l3,8.9h-1.2l-0.9-2.8H142.2z"/>
		<path class="st0" d="M156.5,59c0.3,0.1,0.7,0.1,1.2,0.1c2.4,0,3.8-1.4,3.8-3.8c0-2.1-1.2-3.4-3.6-3.4c-0.6,0-1,0-1.3,0.1L156.5,59
			L156.5,59z M155.3,51.1c0.7-0.1,1.5-0.2,2.4-0.2c1.6,0,2.8,0.4,3.6,1.1c0.8,0.7,1.2,1.7,1.2,3.2c0,1.4-0.4,2.6-1.3,3.4
			c-0.8,0.8-2.2,1.3-3.9,1.3c-0.8,0-1.5,0-2.1-0.1L155.3,51.1L155.3,51.1z"/>
	</g>
	<polygon class="st0" points="175.2,55.7 171.8,55.7 171.8,58.9 175.6,58.9 175.6,59.9 170.6,59.9 170.6,51 175.4,51 175.4,52 
		171.8,52 171.8,54.8 175.2,54.8 	"/>
	<path class="st0" d="M191.1,56c-0.1-1.2-0.1-2.7-0.1-3.8h0c-0.3,1-0.7,2.1-1.1,3.4l-1.6,4.3h-0.9l-1.4-4.2c-0.4-1.2-0.8-2.4-1-3.4
		h0c0,1.1-0.1,2.6-0.2,3.9l-0.2,3.8h-1.1l0.6-8.9h1.5l1.5,4.3c0.4,1.1,0.7,2.1,0.9,3h0c0.2-0.9,0.5-1.9,0.9-3l1.6-4.3h1.5l0.5,8.9
		h-1.1L191.1,56z"/>
	<path class="st0" d="M202.8,59.9v-3.8L200,51h1.3l1.2,2.4c0.3,0.7,0.6,1.2,0.9,1.8h0c0.3-0.6,0.6-1.2,0.9-1.8l1.3-2.4h1.3l-3,5.1
		v3.8H202.8z"/>
	<path class="st1" d="M79.2,11.7c1.8,2.5,3.3,5.2,4.9,8c1.1,2,2.2,4.1,3.2,6.1h-9.5l-0.1-2.5c-0.1-1.6-0.2-3.2-0.3-4.8l-0.1-2.4
		l-0.2-2.4l-0.4-5.2C77.6,9.5,78.4,10.6,79.2,11.7 M23.8,42.6L23.8,42.6C23.8,42.6,23.8,42.6,23.8,42.6 M11.8,43L11.8,43
		C11.8,43,11.8,43,11.8,43C11.9,43,11.8,43,11.8,43 M0.1,44.5L0.1,44.5C0.1,44.5,0.1,44.5,0.1,44.5 M202.3,44.9
		c-1.6-0.3-3.2-0.5-4.8-0.7c-3.2-0.4-6.4-0.7-9.6-0.9c-6.4-0.4-12.8-0.7-19.2-0.9c-6.4-0.2-12.8-0.3-19.2-0.4
		c-3.2,0-6.4-0.1-9.6-0.1h-4.8l-4.8,0c-3.2,0.1-6.4,0-9.5,0l-4.8-0.1c-1.6-0.1-3.2-0.2-4.7-0.2c-1.6-0.1-3.2-0.2-4.7-0.4
		c-0.8-0.1-1.5-0.2-2.3-0.3l-0.3,0l-0.2,0c0,0-0.1,0-0.1,0l-0.1,0l-0.2,0c-0.2-0.1-0.5-0.2-0.8-0.3c-1.1-0.5-2.2-1.5-3.1-2.6
		c-1-1.1-1.9-2.3-2.7-3.5c-0.8-1.3-1.6-2.6-2.4-3.9c-0.4-0.7-0.7-1.4-1-2l-1-2.2c-1.4-2.9-2.8-5.8-4.4-8.7c-1.6-2.9-3.2-5.7-5.1-8.4
		c-1-1.4-2-2.7-3.2-4c-0.6-0.7-1.3-1.3-2.2-1.9c-0.4-0.3-0.9-0.6-1.6-0.8c-0.6-0.2-1.5-0.4-2.4-0.2l-2,0.4l0.1,2.1l0.6,9.6l0.3,4.8
		c0.1,1.6,0.2,3.2,0.3,4.8l0.3,4.7l0.2,4.7l0.1,2.4c0,0.8,0,1.6,0,2.4c0,0.8,0,1.6,0,2.3c0,0.1,0,0.2,0,0.3
		c-1.4,0.1-2.7,0.2-4.1,0.3c-2,0.2-4.1,0.2-6.1,0.4c-2,0.1-4.1,0.2-6.1,0.3c-2,0.1-4.1,0.1-6.1,0.2l-12.3,0.3l-6.2,0.2
		c-2.1,0.1-4.1,0.1-6.2,0.2l-2.9,0.2c0-0.1-0.1-0.1-0.1-0.2c-0.2-0.3-0.5-0.7-0.7-1.1c-1-1.7-1.8-3.5-2.7-5.4
		c-0.9-1.9-1.8-3.7-2.9-5.6c-0.2-0.2-0.3-0.5-0.5-0.7c-0.2-0.3-0.4-0.5-0.8-0.8c-0.2-0.1-0.5-0.4-1.1-0.4c0.1,0-0.3,0-0.2,0l0,0l0,0
		c0,0-0.1,0-0.2,0c-0.1,0-0.2,0.1-0.3,0.1c-0.2,0.1-0.4,0.2-0.5,0.4c-0.2,0.2-0.4,0.5-0.5,0.7c-0.1,0.2-0.2,0.4-0.2,0.5
		c-0.2,0.6-0.3,1.2-0.4,1.7c-0.1,0.5-0.1,1.1-0.2,1.6c-0.2,2.1-0.2,4.1-0.3,6.2c-0.1,1-0.1,2-0.3,2.9c0,0.2-0.1,0.4-0.1,0.6
		c0,0,0,0.1,0,0.1l-0.6,0.1c-2.1,0.2-4.1,0.3-6.1,0.6L1.5,44l-0.8,0.1l-0.4,0l-0.2,0l-0.1,0c0,0,0,0,0,0l0,0c0,0,0,0,0,0
		c0,0,0,0-0.1,0c0,0.7,0.1,0.2,0.1,0.3l0,0l0.1,0l0.2,0l0.4,0l0.8,0.1c1,0.1,2.1,0.2,3.1,0.3c2.1,0.2,4.1,0.3,6.2,0.4l0.8,0l0.2,0
		l0.1,0c0.1,0,0,0,0.2,0c0.3,0,0.5-0.1,0.7-0.2c0.1-0.1,0.2-0.1,0.2-0.2c0.1-0.1,0.1-0.1,0.2-0.2c0.4-0.5,0.4-0.8,0.5-1.1
		c0.1-0.3,0.2-0.6,0.2-0.9c0.2-1.1,0.3-2.1,0.4-3.2c0.2-2.1,0.2-4.1,0.4-6.1c0-0.5,0.1-1,0.2-1.5c0-0.1,0-0.2,0-0.2
		c0.9,1.6,1.7,3.4,2.5,5.1c0.9,1.9,1.7,3.7,2.7,5.6c0.3,0.5,0.5,1,0.9,1.5c0.2,0.3,0.4,0.5,0.7,0.8c0.1,0.1,0.2,0.2,0.3,0.2
		c0.1,0,0.1,0.1,0.2,0.1l0.1,0.1c0.1,0,0.2,0.1,0.3,0.1c0.1,0,0.2,0,0.3,0l0,0l0,0c0.1,0-0.2,0,0.2,0h0h0.2l3.1,0c2,0,4.1,0,6.1,0
		l6.1,0.1l6.2,0.1l3.1,0l3.1,0c2.1,0,4.1,0,6.2,0c2.1,0,4.1,0,6.2-0.1c2.1-0.1,4.1-0.1,6.2-0.2c2.1-0.1,4.1-0.3,6.2-0.4l2-0.1l0.1-2
		c0.1-0.9,0.1-1.7,0.1-2.6c0-0.8,0-1.6,0-2.4c0-0.8,0-1.6,0-2.4l0-2.4L78,29.4h11.1l0.4,0.8c0.4,0.8,0.8,1.5,1.2,2.3
		c0.8,1.4,1.7,2.9,2.7,4.2c1,1.4,2,2.7,3.2,4c1.2,1.3,2.5,2.5,4.4,3.4c0.4,0.2,0.9,0.4,1.5,0.5c0.1,0,0.3,0.1,0.4,0.1l0.2,0l0.2,0
		l0.3,0l0.3,0c0.8,0.1,1.7,0.2,2.5,0.2c1.6,0.1,3.2,0.2,4.9,0.2c1.6,0,3.2,0.1,4.8,0.1l4.8,0c3.2-0.1,6.5-0.2,9.6-0.4l4.8-0.3
		l4.8-0.1l9.6-0.2c6.4-0.1,12.8-0.2,19.2-0.2c6.4,0,12.8,0,19.2,0.2c3.2,0.1,6.4,0.2,9.6,0.5c1.6,0.1,3.2,0.3,4.8,0.5
		c1.6,0.2,3.2,0.4,4.7,1C205.4,45.5,203.8,45.2,202.3,44.9"/>
</g>
</svg>
